<?xml version="1.0" encoding="utf-8"?>
<svg version="1.1" id="Layer_1" xmlns="http://www.w3.org/2000/svg" xmlns:xlink="http://www.w3.org/1999/xlink" x="0px" y="0px"
	 viewBox="0 0 1024 1024" style="enable-background:new 0 0 1024 1024;" xml:space="preserve">
<style type="text/css">
	.st0{fill:#4296FA;}
</style>
<rect x="-1.5" y="0.5" class="st0" width="1027" height="1024"/>
<g>
	<path d="M517.3,221.6c33.5,0,62.3,6,86.4,18c24.1,12,42.5,27.6,55.3,46.8c12.8,19.2,19.2,39.5,19.2,61.1c0,26.1-4.9,47.4-14.7,63.9
		c-9.8,16.5-22,30.4-36.6,41.7c-14.6,11.3-29.2,22.3-43.9,33.1c-14.7,10.8-27,23.3-37,37.8c-9.9,14.4-14.9,32.9-14.9,55.5v28.2h-69
		v-32.3c0-26.4,4.8-48.3,14.5-65.8c9.7-17.4,21.7-32.3,36.1-44.5c14.4-12.3,28.9-23.6,43.3-34.1c14.4-10.5,26.5-21.8,36.3-34.1
		c9.8-12.3,14.7-27.4,14.7-45.3c0-23.1-9.3-41-27.8-53.7c-18.5-12.7-41.5-19-69-19c-19.3,0-39.2,4.7-59.6,14.1
		c-20.4,9.4-39.1,24.6-55.9,45.5l-49-35.9c24-28,50.3-48.5,79-61.5C453.5,228.1,484.4,221.6,517.3,221.6z M498.5,692.9
		c15.8,0,29,5.3,39.6,15.9s15.9,23.4,15.9,38.4c0,15.3-5.3,28.2-15.9,39s-23.8,16.1-39.6,16.1c-15.3,0-28-5.4-38.4-16.1
		c-10.4-10.8-15.5-23.8-15.5-39c0-15,5.2-27.8,15.5-38.4C470.5,698.2,483.3,692.9,498.5,692.9z"/>
</g>
</svg>
